<svg width="126" height="127" viewBox="0 0 126 127" fill="none" xmlns="http://www.w3.org/2000/svg">
<path d="M85.4724 22.7395C85.4724 28.6789 83.1994 34.0864 79.4772 38.1367L100.982 81.6382C101.744 81.5607 102.518 81.521 103.301 81.521C115.837 81.521 126 91.7019 126 104.261C126 116.819 115.837 127 103.301 127C90.764 127 80.6011 116.819 80.6011 104.261C80.6011 98.2431 82.9343 92.7717 86.7438 88.7044L65.3063 45.3389C64.4746 45.4315 63.6293 45.479 62.773 45.479C62.0646 45.479 61.3638 45.4465 60.672 45.3829L39.2562 88.7044C43.0657 92.7717 45.3989 98.2432 45.3989 104.261C45.3989 116.819 35.236 127 22.6994 127C10.1629 127 0 116.819 0 104.261C0 91.7019 10.1629 81.521 22.6994 81.521C23.4822 81.521 24.2557 81.5607 25.0181 81.6382L46.366 38.454C42.468 34.3709 40.0736 28.8353 40.0736 22.7395C40.0736 10.1808 50.2365 0 62.773 0C75.3096 0 85.4724 10.1808 85.4724 22.7395Z" fill="black"/>
</svg>
